<?xml version="1.0" encoding="utf-8"?>
<!-- Generator: Adobe Illustrator 14.0.0, SVG Export Plug-In . SVG Version: 6.00 Build 43363)  -->
<!DOCTYPE svg PUBLIC "-//W3C//DTD SVG 1.1//EN" "http://www.w3.org/Graphics/SVG/1.1/DTD/svg11.dtd">
<svg version="1.1" id="Logo" xmlns="http://www.w3.org/2000/svg" xmlns:xlink="http://www.w3.org/1999/xlink" x="0px" y="0px"
	 width="200px" height="200px" viewBox="0 0 200 200" enable-background="new 0 0 200 200" xml:space="preserve">
<path d="M170.71,29.289C151.824,10.402,126.71,0,100,0s-51.823,10.402-70.71,29.289C10.402,48.177,0,73.289,0,100
	s10.402,51.823,29.289,70.71C48.177,189.599,73.289,200,100,200c26.711,0,51.824-10.401,70.711-29.289
	c18.888-18.888,29.29-44,29.29-70.711S189.598,48.177,170.71,29.289z M166.017,165.883c-17.599,17.598-40.997,27.29-65.884,27.29
	C48.757,193.173,6.96,151.376,6.96,100c0-51.375,41.797-93.173,93.173-93.173c23.77,0,46.403,8.951,63.731,25.205
	c0.917,0.86,0.963,2.3,0.104,3.217c-0.861,0.916-2.3,0.963-3.217,0.103c-16.481-15.459-38.009-23.973-60.618-23.973
	c-48.866,0-88.621,39.755-88.621,88.621s39.755,88.621,88.621,88.621c23.672,0,45.927-9.218,62.666-25.957
	c0.89-0.889,2.329-0.889,3.219,0C166.906,163.553,166.906,164.994,166.017,165.883z M91.553,106.929
	c0.04,0.062,0.083,0.12,0.125,0.18l0.203,0.292l0.01-0.007c1.709,2.27,4.414,3.742,7.467,3.742c3.054,0,5.758-1.473,7.467-3.742
	l0.01,0.007l0.199-0.286c0.044-0.063,0.088-0.125,0.131-0.188l34.949-50.342v113.511c-12.31,7.424-26.722,11.7-42.114,11.7
	c-15.932,0-30.811-4.583-43.397-12.493V56.584L91.553,106.929z M59.561,28.922C71.495,22.106,85.3,18.206,100,18.206
	c14.322,0,27.794,3.705,39.515,10.199L99.358,86.247L59.561,28.922z M38.396,46.252v107.496
	C25.83,139.363,18.206,120.557,18.206,100C18.206,79.444,25.83,60.637,38.396,46.252z M160.319,155.186V44.815
	c13.33,14.558,21.477,33.938,21.477,55.185C181.795,121.248,173.649,140.627,160.319,155.186z"/>
</svg>
